# AST/ASF file generated using VICON BodyLanguage
# -----------------------------------------------
:version 1.10
:name VICON
:units
  mass 1.0
  length 0.45
  angle deg
:documentation
   .ast/.asf automatically generated from VICON data using
   VICON BodyBuilder and BodyLanguage model FoxedUp or BRILLIANT.MOD
:root
   order TX TY TZ RX RY RZ
   axis XYZ
   position 0 0 0  
   orientation 0 0 0 
:bonedata
  begin
     id 1 
     name lhipjoint
     direction 0.646657 -0.683706 0.338203 
     length 2.4948 
     axis 0 0 0  XYZ
  end
  begin
     id 2 
     name lfemur
     direction 0.34202 -0.939693 0  
     length 6.79491  
     axis 0 0 20  XYZ
    dof rx ry rz
    limits (-160.0 20.0)
           (-70.0 70.0)
           (-60.0 70.0)
  end
  begin
     id 3 
     name ltibia
     direction 0.34202 -0.939693 0   
     length 7.56807   
     axis 0 0 20   XYZ
    dof rx
    limits (-10.0 170.0)
  end
  begin
     id 4 
     name lfoot
     direction 0.0679796 -0.186772 0.980048   
     length 2.53018   
     axis -90 7.62852e-016 20   XYZ
    dof rx rz
    limits (-45.0 90.0)
           (-70.0 20.0)
  end
  begin
     id 5 
     name ltoes
     direction 1.53625e-011 -4.21881e-011 1   
     length 1.26912   
     axis -90 7.62852e-016 20   XYZ
    dof rx
    limits (-90.0 20.0)
  end
  begin
     id 6 
     name rhipjoint
     direction -0.618868 -0.704065 0.348274   
     length 2.42265  
     axis 0 0 0  XYZ 
  end
  begin
     id 7 
     name rfemur
     direction -0.34202 -0.939693 0   
     length 6.73814   
     axis 0 0 -20   XYZ
    dof rx ry rz
    limits (-160.0 20.0)
           (-70.0 70.0)
           (-70.0 60.0)
  end
  begin
     id 8 
     name rtibia
     direction -0.34202 -0.939693 0   
     length 7.66799   
     axis 0 0 -20   XYZ
    dof rx
    limits (-10.0 170.0)
 end
 begin
     id 9 
     name rfoot
     direction -0.0727352 -0.199838 0.977125   
     length 2.57224  
     axis -90 -7.62852e-016 -20   XYZ
    dof rx rz
    limits (-45.0 90.0)
           (-20.0 70.0)
  end
  begin
     id 10 
     name rtoes
     direction -1.53501e-011 -4.21858e-011 1   
     length 1.28858   
     axis -90 -7.62852e-016 -20   XYZ
    dof rx
    limits (-90.0 20.0)
  end
  begin
     id 11 
     name lowerback
     direction -0.0172471 0.995767 -0.0902851   
     length 2.20206   
     axis 0 0 0   XYZ
    dof rx ry rz
    limits (-20.0 45.0)
           (-30.0 30.0)
           (-30.0 30.0)
  end
  begin
     id 12 
     name upperback
     direction -0.000110737 0.999714 0.0239043   
     length 2.19523   
     axis 0 0 0   XYZ
    dof rx ry rz
    limits (-20.0 45.0)
           (-30.0 30.0)
           (-30.0 30.0)
  end
  begin
     id 13 
     name thorax
     direction 0.00704869 0.997783 0.0661741   
     length 2.21977   
     axis 0 0 0   XYZ
    dof rx ry rz
    limits (-20.0 45.0)
           (-30.0 30.0)
           (-30.0 30.0)
  end
  begin
     id 14 
     name lowerneck
     direction -0.00407501 0.995527 0.0943846   
     length 1.83142   
     axis 0 0 0   XYZ
    dof rx ry rz
    limits (-20.0 45.0)
           (-30.0 30.0)
           (-30.0 30.0)
  end
  begin
     id 15 
     name upperneck
     direction 0.0640586 0.986486 -0.150807   
     length 1.84616   
     axis 0 0 0   XYZ
    dof rx ry rz
    limits (-20.0 45.0)
           (-30.0 30.0)
           (-30.0 30.0)
  end
  begin
     id 16
     name head
     direction 0.0188017 0.99791 -0.0618239  
     length 1.85932  
     axis 0 0 0   XYZ
    dof rx ry rz
    limits (-20.0 45.0)
           (-30.0 30.0)
           (-30.0 30.0)
  end
  begin
     id 17 
     name lclavicle
     direction 0.976074 0.206905 0.066852  
     length 3.81043  
     axis 0 0 0   XYZ
    dof ry rz
    limits (-20.0 10.0)
           (0.0 20.0)
  end
  begin
     id 18 
     name lhumerus
     direction 1 -4.48971e-011 1.86916e-027   
     length 5.37587   
     axis 180 -30 -90   XYZ
    dof rx ry rz
    limits (-60.0 90.0)
           (-90.0 90.0)
           (-90.0 90.0)
  end
  begin
     id 19
     name lradius
     direction 1 -4.48968e-011 1.69187e-027   
     length 3.35977   
     axis 180 -30 -90   XYZ
    dof rx
    limits (-10.0 170.0)
  end
  begin
     id 20
     name lwrist
     direction 1 -4.48968e-011 5.8978e-027   
     length 1.67988   
     axis -3.27506e-015 90 90   XYZ
    dof ry
    limits (-180.0 0.0)
 end
  begin
     id 21 
     name lhand
     direction 1 -4.49028e-011 1.18071e-026   
     length 0.561859   
     axis -7.52654e-015 90 90   XYZ
    dof rx rz
    limits (-90.0 90.0)
           (-45.0 45.0)
  end
  begin
     id 22 
     name lfingers
     direction 1 -4.48927e-011 2.35758e-026   
     length 0.452985   
     axis -1.50534e-014 90 90   XYZ
    dof rx
    limits (0.0 90.0)
  end
  begin
     id 23
     name lthumb
     direction 0.707107 -6.34898e-011 0.707107   
     length 0.650399   
     axis -90 45 5.69224e-014   XYZ
    dof rx rz
    limits (-45.0 45.0)
           (-45.0 45.0)
  end
  begin
     id 24 
     name rclavicle
     direction -0.988403 0.151789 0.00439714   
     length 3.6942  
     axis 0 0 0   XYZ 
    dof ry rz
    limits (-10.0 20.0)
           (-20.0 0.0)
  end
  begin
     id 25 
     name rhumerus
     direction -1 -4.48978e-011 1.62495e-027  
     length 5.22819   
     axis 180 30 90   XYZ
    dof rx ry rz
    limits (-90.0 60.0)
           (-90.0 90.0)
           (-90.0 90.0)
  end
  begin
     id 26 
     name rradius
     direction -1 -4.48961e-011 3.47796e-027   
     length 3.40764   
     axis 180 30 90   XYZ
    dof rx
    limits (-10.0 170.0)
  end
  begin
     id 27 
     name rwrist
     direction -1 -4.48949e-011 5.89602e-027   
     length 1.70382   
     axis -3.27506e-015 -90 -90   XYZ
    dof ry
    limits (-180.0 0.0)
  end
  begin
     id 28
     name rhand
     direction -1 -4.48977e-011 1.17973e-026   
     length 0.583255   
     axis -7.52654e-015 -90 -90   XYZ
    dof rx rz
    limits (-90.0 90.0)
           (-45.0 45.0)
  end
  begin
     id 29
     name rfingers
     direction -1 -4.49099e-011 2.36408e-026   
     length 0.470235   
     axis -1.50534e-014 -90 -90   XYZ
    dof rx
    limits (0.0 90.0)
  end
  begin
     id 30
     name rthumb
     direction -0.707107 -6.35011e-011 0.707107   
     length 0.675167   
     axis -90 -45 -5.69224e-014   XYZ
    dof rx rz
    limits (-45.0 45.0)
           (-45.0 45.0)
  end
:hierarchy
  begin
    root lhipjoint rhipjoint lowerback
    lhipjoint lfemur
    lfemur ltibia
    ltibia lfoot
    lfoot ltoes
    rhipjoint rfemur
    rfemur rtibia
    rtibia rfoot
    rfoot rtoes
    lowerback upperback
    upperback thorax
    thorax lowerneck lclavicle rclavicle
    lowerneck upperneck
    upperneck head
    lclavicle lhumerus
    lhumerus lradius
    lradius lwrist
    lwrist lhand lthumb
    lhand lfingers
    rclavicle rhumerus
    rhumerus rradius
    rradius rwrist
    rwrist rhand rthumb
    rhand rfingers
  end

#!OML:ASF G:\JayActor3\Patient Classification 1\Patient 1\Session 2\male.ASF
:FULLY-SPECIFIED
:DEGREES
1680
root -37.4839 16.8943 -3.84159 1631.79 86.4555 -1970.74
lowerback -0.191114 0.16818 3.29074
upperback 6.0179 0.164153 1.83306
thorax 6.36217 0.267683 0.0842951
lowerneck -11.3035 -2.16802 -0.17388
upperneck 22.7018 -4.06783 6.57153
head 9.13322 -1.03684 1.851
rclavicle 1.98785e-015 -7.95139e-016
rhumerus -25.6703 -10.8367 -82.8108
rradius 21.9925
rwrist 0.810022
rhand -22.0924 6.24944
rfingers 7.12502
rthumb 4.31959 -23.6865
lclavicle 1.98785e-015 -7.95139e-016
lhumerus -28.4158 5.49866 88.3142
lradius 31.6556
lwrist 10.1403
lhand -19.0045 15.6665
lfingers 7.12502
lthumb 7.30085 45.5206
rfemur -6.80077 -6.50221 25.9309
rtibia 27.2143
rfoot -28.8358 -12.7791
rtoes 25.2961
lfemur -30.6738 5.07469 -19.0871
ltibia 49.8768
lfoot -6.58622 6.70704
ltoes -12.7259
1681
root -37.456 16.8957 -3.83865 1631.4 86.4127 -1971.17
lowerback -0.209113 0.174468 3.30642
upperback 6.003 0.171268 1.82332
thorax 6.35699 0.271804 0.0657128
lowerneck -11.4603 -2.19359 -0.133561
upperneck 23.2544 -4.12005 6.53795
head 9.35638 -1.03395 1.83438
rclavicle -3.97569e-015 6.36111e-015
rhumerus -25.5668 -10.7749 -82.8816
rradius 22.078
rwrist 0.696087
rhand -22.0882 6.22448
rfingers 7.12502
rthumb 4.32359 -23.7114
lclavicle -3.97569e-015 6.36111e-015
lhumerus -28.5503 5.69112 88.244
lradius 31.4281
lwrist 10.0701
lhand -18.9494 15.5617
lfingers 7.12502
lthumb 7.35396 45.4139
rfemur -6.64116 -6.49636 25.9267
rtibia 27.0409
rfoot -28.8735 -12.8119
rtoes 25.3039
lfemur -30.8334 5.09742 -19.2317
ltibia 49.1693
lfoot -6.64228 6.98771
ltoes -12.8275
1682
root -37.4268 16.8967 -3.83607 1631.09 86.376 -1971.52
lowerback -0.233181 0.17846 3.31924
upperback 5.99883 0.17506 1.81627
thorax 6.36666 0.274473 0.0515695
lowerneck -11.5478 -2.22932 -0.156787
upperneck 23.6986 -4.17955 6.55656
head 9.53268 -1.03966 1.84472
rclavicle 3.97569e-016 2.46493e-014
rhumerus -25.4431 -10.6861 -82.9624
rradius 22.1751
rwrist 0.562288
rhand -22.0813 6.21277
rfingers 7.12502
rthumb 4.33024 -23.723
lclavicle 3.97569e-016 2.46493e-014
lhumerus -28.671 5.89986 88.1713
lradius 31.1946
lwrist 9.99705
lhand -18.894 15.4514
lfingers 7.12502
lthumb 7.40744 45.3017
rfemur -6.48171 -6.4983 25.9217
rtibia 26.8738
rfoot -28.9617 -12.7852
rtoes 25.5041
lfemur -30.9638 5.10733 -19.3732
ltibia 48.3865
lfoot -6.68501 7.19284
ltoes -12.7637
1683
root -37.3967 16.8973 -3.83373 1630.85 86.3486 -1971.8
lowerback -0.260175 0.180239 3.32744
upperback 6.00486 0.175868 1.81185
thorax 6.38878 0.275739 0.0427417
lowerneck -11.6417 -2.25985 -0.18515
upperneck 24.1011 -4.22837 6.56662
head 9.69612 -1.04367 1.85365
rclavicle 6.95746e-015 -3.18055e-015
rhumerus -25.3002 -10.5631 -83.055
rradius 22.2816
rwrist 0.411232
rhand -22.0785 6.20426
rfingers 7.12502
rthumb 4.33296 -23.7314
lclavicle 6.95746e-015 -3.18055e-015
lhumerus -28.7782 6.12643 88.0955
lradius 30.9544
lwrist 9.91614
lhand -18.8397 15.3378
lfingers 7.12502
lthumb 7.45987 45.1863
rfemur -6.32094 -6.4975 25.9182
rtibia 26.7098
rfoot -29.0889 -12.7169
rtoes 25.8513
lfemur -31.0685 5.10943 -19.5101
ltibia 47.5359
lfoot -6.72595 7.32474
ltoes -12.6093
1684
root -37.3661 16.8978 -3.83155 1630.74 86.3241 -1971.96
lowerback -0.287105 0.181528 3.33896
upperback 6.01205 0.175869 1.80872
thorax 6.41212 0.276802 0.0333895
lowerneck -11.636 -2.30483 -0.274636
upperneck 24.3806 -4.29153 6.63726
head 9.80078 -1.05958 1.89132
rclavicle 2.78299e-015 -2.38542e-015
rhumerus -25.1567 -10.4151 -83.1569
rradius 22.3999
rwrist 0.244103
rhand -22.0797 6.19498
rfingers 7.12502
rthumb 4.33176 -23.7407
lclavicle 2.78299e-015 -2.38542e-015
lhumerus -28.8884 6.34878 88.0194
lradius 30.7163
lwrist 9.829
lhand -18.8025 15.2502
lfingers 7.12502
lthumb 7.49579 45.0974
rfemur -6.16068 -6.49655 25.9223
rtibia 26.5412
rfoot -29.2047 -12.6496
rtoes 26.1788
lfemur -31.1576 5.10462 -19.6377
ltibia 46.6241
lfoot -6.75561 7.39349
ltoes -12.4939
1685
root -37.3344 16.8984 -3.82956 1630.73 86.3082 -1972
lowerback -0.313139 0.183165 3.34751
upperback 6.02476 0.176441 1.808
thorax 6.44082 0.278133 0.0283199
lowerneck -11.5592 -2.3567 -0.401051
upperneck 24.5607 -4.35942 6.74083
head 9.85836 -1.08268 1.94523
rclavicle 2.127e-014 2.54444e-014
rhumerus -25.0079 -10.2445 -83.2651
rradius 22.526
rwrist 0.0699883
rhand -22.0805 6.19195
rfingers 7.12502
rthumb 4.331 -23.7438
lclavicle 2.127e-014 2.54444e-014
lhumerus -29.0004 6.5694 87.9467
lradius 30.4832
lwrist 9.73015
lhand -18.7877 15.219
lfingers 7.12502
lthumb 7.5101 45.0657
rfemur -5.98957 -6.4928 25.9303
rtibia 26.3655
rfoot -29.2914 -12.5918
rtoes 26.4458
lfemur -31.221 5.0938 -19.7568
ltibia 45.6573
lfoot -6.75936 7.41552
ltoes -12.5429
1686
root -37.3019 16.8989 -3.82781 1630.83 86.2933 -1971.94
lowerback -0.331963 0.188207 3.36308
upperback 6.03002 0.181793 1.80358
thorax 6.4576 0.282006 0.0155828
lowerneck -11.4504 -2.40811 -0.509283
upperneck 24.6962 -4.42562 6.8326
head 9.89338 -1.10704 1.99168
rclavicle 1.39149e-015 -7.95139e-015
rhumerus -24.8785 -10.0787 -83.3765
rradius 22.6555
rwrist -0.100069
rhand -22.0897 6.18813
rfingers 7.12502
rthumb 4.32219 -23.7478
lclavicle 1.39149e-015 -7.95139e-015
lhumerus -29.1328 6.76873 87.8693
lradius 30.2528
lwrist 9.62401
lhand -18.7849 15.2352
lfingers 7.12502
lthumb 7.51279 45.0818
rfemur -5.80887 -6.49479 25.9433
rtibia 26.1805
rfoot -29.3194 -12.5701
rtoes 26.5368
lfemur -31.263 5.07224 -19.8657
ltibia 44.6414
lfoot -6.74962 7.40034
ltoes -12.6051
1687
root -37.2687 16.8995 -3.82638 1630.97 86.2796 -1971.84
lowerback -0.340702 0.192633 3.3784
upperback 6.03146 0.186923 1.79771
thorax 6.46448 0.285619 0.00131619
lowerneck -11.3554 -2.4508 -0.585672
upperneck 24.8179 -4.47893 6.88996
head 9.92408 -1.12704 2.02181
rclavicle -4.57205e-015 1.59028e-015
rhumerus -24.7547 -9.90375 -83.493
rradius 22.7884
rwrist -0.26597
rhand -22.1039 6.174
rfingers 7.12502
rthumb 4.30844 -23.7622
lclavicle -4.57205e-015 1.59028e-015
lhumerus -29.278 6.9534 87.7923
lradius 30.0312
lwrist 9.5153
lhand -18.8004 15.3202
lfingers 7.12502
lthumb 7.4978 45.1674
rfemur -5.6242 -6.5035 25.9565
rtibia 25.9884
rfoot -29.2838 -12.5859
rtoes 26.4368
lfemur -31.2902 5.03268 -19.9679
ltibia 43.5836
lfoot -6.69807 7.3752
ltoes -12.8718
1688
root -37.2345 16.8997 -3.82569 1631.23 86.2829 -1971.62
lowerback -0.348716 0.200924 3.39825
upperback 6.03453 0.197139 1.79061
thorax 6.47288 0.292079 -0.0164232
lowerneck -11.3327 -2.47567 -0.59333
upperneck 24.9697 -4.50754 6.86998
head 9.97522 -1.13611 2.01585
rclavicle -2.44505e-014 -3.26007e-014
rhumerus -24.6267 -9.72521 -83.6123
rradius 22.9194
rwrist -0.41952
rhand -22.1221 6.15798
rfingers 7.12502
rthumb 4.29086 -23.7786
lclavicle -2.44505e-014 -3.26007e-014
lhumerus -29.4223 7.14393 87.7089
lradius 29.8007
lwrist 9.40899
lhand -18.8074 15.3863
lfingers 7.12502
lthumb 7.49107 45.2336
rfemur -5.43357 -6.52094 25.9679
rtibia 25.7882
rfoot -29.2037 -12.6011
rtoes 26.2315
lfemur -31.2957 4.98969 -20.0615
ltibia 42.4917
lfoot -6.61994 7.35128
ltoes -13.1971
1689
root -37.1994 16.8999 -3.82553 1631.53 86.2909 -1971.37
lowerback -0.354325 0.206816 3.4151
upperback 6.04035 0.204382 1.78419
thorax 6.48272 0.296983 -0.0319393
lowerneck -11.3951 -2.47718 -0.537426
upperneck 25.1646 -4.504 6.7763
head 10.0538 -1.13021 1.97687
rclavicle 1.31198e-014 2.94201e-014
rhumerus -24.4873 -9.5393 -83.7329
rradius 23.0441
rwrist -0.562357
rhand -22.1364 6.14092
rfingers 7.12502
rthumb 4.2771 -23.7959
lclavicle 1.31198e-014 2.94201e-014
lhumerus -29.5625 7.34343 87.6222
lradius 29.5645
lwrist 9.30381
lhand -18.8106 15.4378
lfingers 7.12502
lthumb 7.48793 45.2853
rfemur -5.23968 -6.54592 25.976
rtibia 25.5815
rfoot -29.0891 -12.6304
rtoes 25.9118
lfemur -31.2817 4.92751 -20.1438
ltibia 41.3731
lfoot -6.56961 7.29868
ltoes -13.2664
